<svg width="48" height="48" viewBox="0 0 48 48" fill="none" xmlns="http://www.w3.org/2000/svg">
<path d="M11 9C11 7.89543 11.8954 7 13 7H35C36.1046 7 37 7.89543 37 9V11H35V9H13V11H11V9Z" fill="#4A5560"/>
<path d="M8 15C8 13.8954 8.89543 13 10 13H38C39.1046 13 40 13.8954 40 15V17H38V15H10V17H8V15Z" fill="#4A5560"/>
<path fill-rule="evenodd" clip-rule="evenodd" d="M24 36C27.3137 36 30 33.3137 30 30C30 26.6863 27.3137 24 24 24C20.6863 24 18 26.6863 18 30C18 33.3137 20.6863 36 24 36ZM24 34C26.2091 34 28 32.2091 28 30C28 27.7909 26.2091 26 24 26C21.7909 26 20 27.7909 20 30C20 32.2091 21.7909 34 24 34Z" fill="#4A5560"/>
<path fill-rule="evenodd" clip-rule="evenodd" d="M6 19C4.89543 19 4 19.8954 4 21V39C4 40.1046 4.89543 41 6 41H42C43.1046 41 44 40.1046 44 39V21C44 19.8954 43.1046 19 42 19H6ZM9.69552 22.5307C9.89654 22.0454 10 21.5253 10 21H6V25C6.52529 25 7.04543 24.8965 7.53073 24.6955C7.69239 24.6286 7.84912 24.5512 8 24.4641C8.30209 24.2897 8.58072 24.0761 8.82843 23.8284C9.07614 23.5807 9.28969 23.3021 9.4641 23C9.55121 22.8491 9.62856 22.6924 9.69552 22.5307ZM12 21C12 21.7879 11.8448 22.5681 11.5433 23.2961C11.2418 24.0241 10.7998 24.6855 10.2426 25.2426C9.68549 25.7998 9.02406 26.2417 8.2961 26.5433C7.56815 26.8448 6.78793 27 6 27V33C6.78793 33 7.56815 33.1552 8.2961 33.4567C9.02406 33.7583 9.68549 34.2002 10.2426 34.7574C10.7998 35.3145 11.2418 35.9759 11.5433 36.7039C11.8448 37.4319 12 38.2121 12 39H36C36 38.2121 36.1552 37.4319 36.4567 36.7039C36.7583 35.9759 37.2002 35.3145 37.7574 34.7574C38.3145 34.2002 38.976 33.7583 39.7039 33.4567C40.4319 33.1552 41.2121 33 42 33V27C41.2121 27 40.4319 26.8448 39.7039 26.5433C38.976 26.2417 38.3145 25.7998 37.7574 25.2426C37.2002 24.6855 36.7583 24.0241 36.4567 23.2961C36.1552 22.5681 36 21.7879 36 21H12ZM40.4693 35.3045C40.9546 35.1035 41.4747 35 42 35V39H38C38 38.4747 38.1035 37.9546 38.3045 37.4693C38.3714 37.3076 38.4488 37.1509 38.5359 37C38.7103 36.6979 38.9239 36.4193 39.1716 36.1716C39.4193 35.9239 39.6979 35.7103 40 35.5359C40.1509 35.4488 40.3076 35.3714 40.4693 35.3045ZM38 21C38 21.5253 38.1035 22.0454 38.3045 22.5307C38.3714 22.6924 38.4488 22.8491 38.5359 23C38.7103 23.3021 38.9239 23.5807 39.1716 23.8284C39.4193 24.0761 39.6979 24.2897 40 24.4641C40.1509 24.5512 40.3076 24.6286 40.4693 24.6955C40.9546 24.8965 41.4747 25 42 25V21H38ZM6 39V35C6.52529 35 7.04543 35.1035 7.53073 35.3045C7.69239 35.3714 7.84912 35.4488 8 35.5359C8.30209 35.7103 8.58072 35.9239 8.82843 36.1716C9.07614 36.4193 9.28969 36.6979 9.4641 37C9.55121 37.1509 9.62856 37.3076 9.69552 37.4693C9.89654 37.9546 10 38.4747 10 39H6Z" fill="#4A5560"/>
</svg>
