<svg width="69" height="68" viewBox="0 0 69 68" fill="none" xmlns="http://www.w3.org/2000/svg">
<rect x="0.333252" width="68" height="68" rx="12" fill="#DEF4FF"/>
<path d="M29.3333 36.5H39.3333V39H29.3333V36.5Z" fill="#1E3860"/>
<path fill-rule="evenodd" clip-rule="evenodd" d="M49.4542 32.75H51.8333V30.25H48.8091L47.0351 23.3759C46.1804 20.0641 43.1934 17.75 39.773 17.75H28.8935C25.4731 17.75 22.4861 20.0641 21.6314 23.3759L19.8574 30.25H16.8333V32.75H19.2123L18.6795 34.8144C18.3928 35.488 18.2017 36.212 18.1234 36.9695L18.0833 37.125V47.75C18.0833 49.1307 19.2025 50.25 20.5833 50.25H25.5833C26.964 50.25 28.0833 49.1307 28.0833 47.75V45.25H40.5833V47.75C40.5833 49.1307 41.7025 50.25 43.0833 50.25H48.0833C49.464 50.25 50.5833 49.1307 50.5833 47.75V37.125L50.5431 36.9695C50.4648 36.212 50.2737 35.488 49.987 34.8144L49.4542 32.75ZM20.5833 42.75V39H24.3333V36.5H20.8264L21.0477 35.6428C21.8428 33.9343 23.5747 32.75 25.5833 32.75H43.0833C45.0918 32.75 46.8238 33.9343 47.6188 35.6428L47.8401 36.5H44.3333V39H48.0833V42.75H20.5833ZM22.4394 30.25L24.0521 24.0006C24.6219 21.7927 26.6133 20.25 28.8935 20.25H39.773C42.0532 20.25 44.0446 21.7927 44.6144 24.0006L46.2272 30.25H22.4394ZM20.5833 47.75V45.25H25.5833V47.75H20.5833ZM43.0833 47.75V45.25H48.0833V47.75H43.0833Z" fill="#1E3860"/>
</svg>
