<svg width="48" height="48" viewBox="0 0 48 48" fill="none" xmlns="http://www.w3.org/2000/svg">
<path d="M33 3C36.3137 3 39 5.68629 39 9V39C39 42.3137 36.3137 45 33 45H15C11.6863 45 9 42.3137 9 39V9C9 5.68629 11.6863 3 15 3H33ZM36 10.836L30 14.298V21H21V19.497L12 24.693V39C12 40.5385 13.1581 41.8065 14.6501 41.9798L15 42H33C34.5385 42 35.8065 40.8419 35.9798 39.3499L36 39V10.836ZM21 36V39H15V36H21ZM21 30V33H15V30H21ZM33 30V33H24V30H33ZM33 24V27H21V24H33ZM33 6H15C13.4615 6 12.1935 7.15812 12.0202 8.65014L12 9V21.231L21 16.035V9H30V10.836L35.6434 7.58018C35.1895 6.73683 34.3438 6.13562 33.3499 6.02018L33 6ZM24 18H27V12H24V18Z" fill="#4A5560"/>
</svg>
