<svg width="48" height="48" viewBox="0 0 48 48" fill="none" xmlns="http://www.w3.org/2000/svg">
<path fill-rule="evenodd" clip-rule="evenodd" d="M26.4688 15C26.4688 19.9706 22.4393 24 17.4688 24C12.4982 24 8.46875 19.9706 8.46875 15C8.46875 10.0294 12.4982 6 17.4688 6C22.4393 6 26.4688 10.0294 26.4688 15ZM23.4688 15C23.4688 18.3137 20.7825 21 17.4688 21C14.155 21 11.4688 18.3137 11.4688 15C11.4688 11.6863 14.155 9 17.4688 9C20.7825 9 23.4688 11.6863 23.4688 15Z" fill="#4A5560"/>
<path d="M45.5295 19.0607L36.9689 27.6213L31.4082 22.0607L33.5295 19.9394L36.9689 23.3787L43.4082 16.9394L45.5295 19.0607Z" fill="#4A5560"/>
<path d="M32.4688 42H29.4688C29.4688 35.3726 24.0962 30 17.4688 30C10.8413 30 5.46875 35.3726 5.46875 42H2.46875C2.46875 33.7157 9.18448 27 17.4688 27C25.753 27 32.4688 33.7157 32.4688 42Z" fill="#4A5560"/>
</svg>
