<svg width="48" height="48" viewBox="0 0 48 48" fill="none" xmlns="http://www.w3.org/2000/svg">
<path fill-rule="evenodd" clip-rule="evenodd" d="M32.25 20.25C35.5638 20.25 38.25 17.5637 38.25 14.25C38.25 10.9363 35.5638 8.25 32.25 8.25C28.9362 8.25 26.25 10.9363 26.25 14.25C26.25 17.5637 28.9362 20.25 32.25 20.25ZM32.25 17.25C33.9068 17.25 35.25 15.9069 35.25 14.25C35.25 12.5931 33.9068 11.25 32.25 11.25C30.5932 11.25 29.25 12.5931 29.25 14.25C29.25 15.9069 30.5932 17.25 32.25 17.25Z" fill="#4A5560"/>
<path d="M42.75 33.75H39.75C39.75 29.6078 36.3922 26.25 32.25 26.25C29.2982 26.25 26.7446 27.9552 25.5208 30.4344C24.8158 29.695 24.0276 29.0356 23.1714 28.4712C24.991 25.3486 28.3754 23.25 32.25 23.25C38.049 23.25 42.75 27.951 42.75 33.75Z" fill="#4A5560"/>
<path fill-rule="evenodd" clip-rule="evenodd" d="M15.75 26.25C19.0637 26.25 21.75 23.5638 21.75 20.25C21.75 16.9363 19.0637 14.25 15.75 14.25C12.4363 14.25 9.75 16.9363 9.75 20.25C9.75 23.5638 12.4363 26.25 15.75 26.25ZM15.75 23.25C17.4069 23.25 18.75 21.9068 18.75 20.25C18.75 18.5931 17.4069 17.25 15.75 17.25C14.0931 17.25 12.75 18.5931 12.75 20.25C12.75 21.9068 14.0931 23.25 15.75 23.25Z" fill="#4A5560"/>
<path d="M23.25 39.75H26.25C26.25 33.951 21.549 29.25 15.75 29.25C9.95102 29.25 5.25 33.951 5.25 39.75H8.25C8.25 35.6078 11.6079 32.25 15.75 32.25C19.8921 32.25 23.25 35.6078 23.25 39.75Z" fill="#4A5560"/>
</svg>
