<svg width="48" height="48" viewBox="0 0 48 48" fill="none" xmlns="http://www.w3.org/2000/svg">
<path fill-rule="evenodd" clip-rule="evenodd" d="M28.5 30C28.5 31.9594 27.2478 33.6262 25.5 34.244V39H22.5V34.244C20.7522 33.6262 19.5 31.9594 19.5 30C19.5 27.5148 21.5148 25.5 24 25.5C26.4852 25.5 28.5 27.5148 28.5 30ZM24 31.5C24.8284 31.5 25.5 30.8284 25.5 30C25.5 29.1716 24.8284 28.5 24 28.5C23.1716 28.5 22.5 29.1716 22.5 30C22.5 30.8284 23.1716 31.5 24 31.5Z" fill="#4A5560"/>
<path fill-rule="evenodd" clip-rule="evenodd" d="M15 12V18.189C12.4122 18.8551 10.5 21.2042 10.5 24V39C10.5 42.3138 13.1863 45 16.5 45H31.5C34.8138 45 37.5 42.3138 37.5 39V24C37.5 21.2042 35.5878 18.8551 33 18.189V12C33 7.02944 28.9706 3 24 3C19.0294 3 15 7.02944 15 12ZM30 18V12C30 8.6863 27.3138 6 24 6C20.6862 6 18 8.6863 18 12V18H30ZM13.5 24C13.5 22.3432 14.8431 21 16.5 21H31.5C33.1568 21 34.5 22.3432 34.5 24V39C34.5 40.6568 33.1568 42 31.5 42H16.5C14.8431 42 13.5 40.6568 13.5 39V24Z" fill="#4A5560"/>
</svg>
