<svg width="48" height="48" viewBox="0 0 48 48" fill="none" xmlns="http://www.w3.org/2000/svg">
<path d="M15 16.8088V19.8088H6V37.8088H42V19.8088H33V16.8088H42C43.6569 16.8088 45 18.152 45 19.8088V37.8088C45 39.4657 43.6569 40.8088 42 40.8088H6C4.34315 40.8088 3 39.4657 3 37.8088V19.8088C3 18.152 4.34315 16.8088 6 16.8088H15ZM39 25.8088V34.8088H27V25.8088H39ZM21 31.8088V34.8088H9V31.8088H21ZM36 28.8088H30V31.8088H36V28.8088ZM24 25.8088V28.8088H9V25.8088H24ZM24 7.1875L31.0607 14.2482L28.9393 16.3695L25.4983 12.9295L25.5 22.8088H22.5L22.4983 12.9295L19.0607 16.3695L16.9393 14.2482L24 7.1875Z" fill="#4A5560"/>
</svg>
