<svg width="48" height="48" viewBox="0 0 48 48" fill="none" xmlns="http://www.w3.org/2000/svg">
<path fill-rule="evenodd" clip-rule="evenodd" d="M16.7488 23.7323C18.4898 21.9913 21.2956 20.293 25.497 20.293C30.0827 20.293 33.8958 23.9067 35.5317 28.4053C37.2002 32.9939 36.7664 38.8127 32.6493 43.7532L30.3446 41.8326C33.7275 37.7732 34.0437 33.0921 32.7123 29.4306C31.3482 25.6793 28.4112 23.293 25.497 23.293C22.1983 23.293 20.1291 24.5947 18.8701 25.8536C18.2291 26.4946 17.7887 27.1358 17.5114 27.6112C17.3733 27.848 17.2774 28.0405 17.2188 28.1668C17.1895 28.2298 17.1697 28.276 17.1587 28.3025L17.1487 28.327L17.1504 28.3224C17.1504 28.3224 17.1515 28.3196 15.747 27.7929C14.3425 27.2662 14.3431 27.2647 14.3431 27.2647L14.3452 27.2591L14.3487 27.2497L14.3586 27.2245C14.3664 27.2047 14.3767 27.1793 14.3894 27.1486C14.415 27.0872 14.4509 27.0045 14.4978 26.9035C14.5915 26.7016 14.73 26.4254 14.92 26.0996C15.299 25.4501 15.8898 24.5913 16.7488 23.7323Z" fill="#4A5560"/>
<path d="M10.4969 7.54297C11.4572 8.6953 11.4561 8.69618 11.4561 8.69618L11.4536 8.69831L11.4731 8.68289C11.4955 8.66538 11.535 8.6351 11.5916 8.59385C11.7048 8.51132 11.8861 8.38497 12.1357 8.22903C12.6347 7.91712 13.4058 7.48719 14.4488 7.05258C16.5314 6.18485 19.7109 5.29297 23.9969 5.29297C28.2858 5.29297 31.6656 6.18612 33.9584 7.06799C35.1053 7.50908 35.9794 7.94708 36.5575 8.26827C36.8465 8.4288 37.0611 8.55992 37.1984 8.64733C37.2671 8.69102 37.3164 8.72376 37.346 8.74374L37.376 8.76422C37.376 8.76422 37.3751 8.76357 38.2469 7.54297C39.1188 6.32237 39.1166 6.32082 39.1166 6.32082L39.1139 6.31892L39.1071 6.31412L39.0877 6.30052C39.0721 6.28971 39.0514 6.27545 39.0255 6.25797C38.9738 6.22302 38.9015 6.17519 38.8091 6.11634C38.6241 5.99867 38.3583 5.83683 38.0144 5.6458C37.3269 5.26385 36.326 4.76436 35.0354 4.26795C32.4532 3.27482 28.7081 2.29297 23.9969 2.29297C19.2829 2.29297 15.7124 3.27609 13.295 4.28335C12.088 4.78625 11.1716 5.29382 10.5457 5.68503C10.2327 5.88065 9.99217 6.04727 9.82409 6.16982C9.74004 6.23111 9.67408 6.2814 9.62618 6.31882C9.60223 6.33753 9.5828 6.35302 9.56787 6.36507L9.54887 6.38053L9.54191 6.38626L9.53906 6.38862C9.53906 6.38862 9.53663 6.39064 10.4969 7.54297Z" fill="#4A5560"/>
<path d="M7.49691 17.893C8.80815 18.6214 8.80739 18.6228 8.80739 18.6228C8.81165 18.6155 8.82086 18.5998 8.83381 18.5784C8.85973 18.5356 8.90318 18.4656 8.96483 18.3724C9.08822 18.1858 9.28396 17.9069 9.55743 17.5661C10.105 16.8838 10.9594 15.9592 12.1631 15.0306C14.5548 13.1856 18.3635 11.293 23.9969 11.293C29.6303 11.293 33.439 13.1856 35.8307 15.0306C37.0344 15.9592 37.8889 16.8838 38.4364 17.5661C38.7099 17.9069 38.9056 18.1858 39.029 18.3724C39.0906 18.4656 39.1341 18.5356 39.16 18.5784C39.1704 18.5955 39.1783 18.6089 39.1833 18.6174L39.1864 18.6228C39.1864 18.6228 39.1857 18.6214 40.4969 17.893C41.8081 17.1645 41.8073 17.163 41.8073 17.163L41.8041 17.1572L41.7983 17.1469L41.7815 17.1177C41.768 17.0944 41.7498 17.0635 41.7269 17.0256C41.681 16.9498 41.6161 16.8457 41.5312 16.7175C41.3617 16.461 41.1121 16.1071 40.7762 15.6885C40.105 14.8521 39.0844 13.7517 37.6631 12.6553C34.8048 10.4503 30.3635 8.29297 23.9969 8.29297C17.6303 8.29297 13.189 10.4503 10.3307 12.6553C8.90941 13.7517 7.88885 14.8521 7.21764 15.6885C6.88174 16.1071 6.63217 16.461 6.46259 16.7175C6.37775 16.8457 6.3128 16.9498 6.26694 17.0256C6.24401 17.0635 6.22584 17.0944 6.21233 17.1177L6.19555 17.1469L6.18975 17.1572L6.1875 17.1612C6.1875 17.1612 6.18568 17.1645 7.49691 17.893Z" fill="#4A5560"/>
<path d="M9.71775 22.2471C11.8539 17.9748 16.6948 14.293 23.9969 14.293C31.2366 14.293 35.593 17.3401 38.1057 20.4809C39.3431 22.0277 40.1141 23.5706 40.5771 24.7281C40.8092 25.3084 40.9659 25.7968 41.0661 26.1475C41.1163 26.323 41.1524 26.4646 41.1769 26.5666C41.1892 26.6176 41.1985 26.6587 41.2052 26.6893L41.2133 26.7272L41.216 26.7401L41.2174 26.747C41.2174 26.747 41.2178 26.7488 39.7469 27.043C38.276 27.3372 38.2763 27.3387 38.2763 27.3387L38.2749 27.3321L38.2692 27.3069L38.2598 27.2667C38.2447 27.2039 38.2193 27.1037 38.1816 26.9717C38.106 26.7072 37.9814 26.3166 37.7917 25.8422C37.4109 24.8904 36.7756 23.6207 35.7631 22.355C33.7757 19.8708 30.2571 17.293 23.9969 17.293C17.799 17.293 14.0148 20.3612 12.401 23.5888C11.5819 25.227 11.3335 26.8758 11.5546 28.2026C11.7723 29.5086 12.424 30.4545 13.4177 30.9513C14.6174 31.5512 15.4361 31.5337 16.0855 31.3312C16.8214 31.1017 17.53 30.5793 18.407 29.8004C18.5705 29.6552 18.7433 29.4975 18.9239 29.3326C19.6246 28.6929 20.4459 27.9431 21.3223 27.3795C22.4998 26.6222 23.9278 26.0852 25.6829 26.3046C27.5752 26.5411 28.9974 27.7491 29.7958 29.3436C30.5845 30.9189 30.7901 32.8905 30.3771 34.903C29.5403 38.9817 26.177 43.3086 19.5433 45.7038L18.5245 42.8821C24.3538 40.7773 26.847 37.1823 27.4384 34.3001C27.7396 32.8321 27.5522 31.5635 27.1132 30.6867C26.6838 29.8291 26.0435 29.373 25.3108 29.2814C24.441 29.1727 23.7127 29.409 22.9449 29.9028C22.3024 30.316 21.7317 30.8355 21.0609 31.4462C20.8518 31.6365 20.6329 31.8358 20.3992 32.0434C19.495 32.8465 18.3754 33.7596 16.9785 34.1952C15.4952 34.6577 13.8763 34.5347 12.0761 33.6346C10.0698 32.6315 8.94025 30.7648 8.59543 28.6958C8.25407 26.6477 8.66188 24.3589 9.71775 22.2471Z" fill="#4A5560"/>
<path d="M17.1817 37.4538C18.919 36.7919 20.8079 35.6107 22.9363 33.4823L25.0576 35.6036C22.6859 37.9753 20.4499 39.4191 18.2497 40.2572C16.0503 41.0951 13.9767 41.293 11.9969 41.293V38.293C13.7671 38.293 15.4435 38.1159 17.1817 37.4538Z" fill="#4A5560"/>
</svg>
