<svg width="48" height="48" viewBox="0 0 48 48" fill="none" xmlns="http://www.w3.org/2000/svg">
<path d="M25.5027 14.2906V30.7906H22.5027V14.2906H25.5027Z" fill="#4A5560"/>
<path d="M24.0027 33.7906C25.2454 33.7906 26.2527 34.798 26.2527 36.0406C26.2527 37.2833 25.2454 38.2906 24.0027 38.2906C22.7601 38.2906 21.7527 37.2833 21.7527 36.0406C21.7527 34.798 22.7601 33.7906 24.0027 33.7906Z" fill="#4A5560"/>
<path fill-rule="evenodd" clip-rule="evenodd" d="M18.6361 7.02375L4.3443 35.6073C2.3496 39.5968 5.25057 44.2906 9.71087 44.2906H38.2945C42.7547 44.2906 45.6557 39.5968 43.661 35.6073L29.3692 7.02375C27.1581 2.60146 20.8472 2.60146 18.6361 7.02375ZM7.02758 36.949L21.3194 8.36539C22.425 6.15425 25.5804 6.15424 26.6859 8.36539L40.9777 36.949C41.9751 38.9437 40.5246 41.2906 38.2945 41.2906H9.71087C7.48072 41.2906 6.03023 38.9437 7.02758 36.949Z" fill="#4A5560"/>
</svg>
